<svg xmlns="http://www.w3.org/2000/svg" viewBox="0 0 236 178"><defs><style>.d-cls-2,.d-cls-5{fill:#fff}.d-cls-3{fill:#c4c4c4}.d-cls-4{fill:#bababa}.d-cls-5{fill-opacity:.1}.d-cls-6{stroke:#fff;stroke-width:2px}.d-cls-7{mask:url(#desktop-mask)}.d-cls-8{fill:#e7e7e7}</style><mask id="desktop-mask" width="236.31" height="18.69" x="-.31" y="84.35"><g><rect width="236.16" height="17.18" x="-.25" y="85.1" class="d-cls-1" transform="translate(-0.6 0.75) rotate(-0.37)"/></g></mask></defs><g><g><rect width="236" height="178" class="d-cls-2"/><rect width="236" height="86" class="d-cls-3"/><polygon points="234.13 86 157.23 24.1 93.83 64.38 77.44 44.56 5.84 86 234.13 86" class="d-cls-4"/><circle cx="31.95" cy="30.81" r="12.68" class="d-cls-5"/><path d="M42.15,10.37l16.46-.1a2.28,2.28,0,0,1,2.3,2.26h0a2.27,2.27,0,0,1-2.27,2.3l-16.46.11a2.28,2.28,0,0,1-2.3-2.27h0A2.29,2.29,0,0,1,42.15,10.37Z" class="d-cls-2"/><path d="M104.06,11.12l9.14-.06a1.13,1.13,0,0,1,1.15,1.13h0a1.13,1.13,0,0,1-1.13,1.15l-9.15.06a1.14,1.14,0,0,1-1.15-1.13h0A1.15,1.15,0,0,1,104.06,11.12Z" class="d-cls-2"/><path d="M120.06,11,129.2,11a1.13,1.13,0,0,1,1.15,1.13h0a1.13,1.13,0,0,1-1.13,1.15l-9.15.06a1.15,1.15,0,0,1-1.15-1.14h0A1.14,1.14,0,0,1,120.06,11Z" class="d-cls-2"/><path d="M136.06,10.91l9.14-.06A1.14,1.14,0,0,1,146.35,12h0a1.14,1.14,0,0,1-1.13,1.15l-9.15,0a1.13,1.13,0,0,1-1.15-1.13h0A1.14,1.14,0,0,1,136.06,10.91Z" class="d-cls-2"/><path d="M152.06,10.81l9.14-.06a1.14,1.14,0,0,1,1.15,1.13h0A1.13,1.13,0,0,1,161.22,13l-9.15.06A1.14,1.14,0,0,1,150.92,12h0A1.15,1.15,0,0,1,152.06,10.81Z" class="d-cls-2"/><path d="M177.22,10.5l16.22-.1a1.29,1.29,0,0,1,1.29,1.28h0A1.3,1.3,0,0,1,193.45,13l-16.22.1a1.27,1.27,0,0,1-1.29-1.27h0A1.29,1.29,0,0,1,177.22,10.5Z" class="d-cls-6"/><rect width="136.07" height="9.14" x="49.91" y="36.84" class="d-cls-2" rx="4.57" transform="translate(-0.26 0.76) rotate(-0.37)"/><path d="M91.41,52.71l53.22-.35a1.15,1.15,0,0,1,1.15,1.14h0a1.15,1.15,0,0,1-1.14,1.15L91.43,55a1.13,1.13,0,0,1-1.15-1.13h0A1.13,1.13,0,0,1,91.41,52.71Z" class="d-cls-2"/><path d="M103.2,58.05l29.71-.19A1.13,1.13,0,0,1,134.06,59h0a1.14,1.14,0,0,1-1.13,1.15l-29.72.19a1.15,1.15,0,0,1-1.15-1.13h0A1.15,1.15,0,0,1,103.2,58.05Z" class="d-cls-2"/><path d="M103.63,124.76l29.71-.19a1.15,1.15,0,0,1,1.15,1.14h0a1.15,1.15,0,0,1-1.14,1.15l-29.71.19a1.15,1.15,0,0,1-1.15-1.14h0A1.15,1.15,0,0,1,103.63,124.76Z" class="d-cls-3"/><g class="d-cls-7"><path d="M0,86v10.9c23.41,2,66.54,3.17,115.89,2.86,52.52-.34,98-2.26,120.11-4.79V86Z" class="d-cls-4"/></g><path d="M100,74.92l36.55-.24a4.58,4.58,0,0,1,4.6,4.54h0a4.58,4.58,0,0,1-4.54,4.6l-36.55.24a4.58,4.58,0,0,1-4.6-4.54h0A4.58,4.58,0,0,1,100,74.92Z" class="d-cls-2"/><path d="M102.84,78.22,132.56,78a1.14,1.14,0,0,1,1.15,1.13h0a1.15,1.15,0,0,1-1.14,1.15l-29.71.19a1.13,1.13,0,0,1-1.15-1.13h0A1.14,1.14,0,0,1,102.84,78.22Z" class="d-cls-3"/><path d="M86.49,115.59l64-.41a2.28,2.28,0,0,1,2.3,2.26h0a2.28,2.28,0,0,1-2.27,2.3l-64,.41a2.26,2.26,0,0,1-2.29-2.26h0A2.27,2.27,0,0,1,86.49,115.59Z" class="d-cls-3"/><rect width="41.12" height="31.71" x="43.33" y="138.39" class="d-cls-8" rx="10" transform="translate(-0.99 0.41) rotate(-0.37)"/><path d="M59.38,154.51,49.13,170.2l31.73-.2L70.17,147.3l-8.54,14.35Z" class="d-cls-3"/><circle cx="53.22" cy="147.12" r="4.77" class="d-cls-2"/><rect width="41.12" height="31.71" x="98.15" y="138.04" class="d-cls-8" rx="10" transform="translate(-0.99 0.77) rotate(-0.37)"/><path d="M114.2,154.17,104,169.86l31.73-.21L125,147l-8.54,14.35Z" class="d-cls-3"/><circle cx="108.04" cy="146.77" r="4.77" class="d-cls-2"/><rect width="41.12" height="31.71" x="152.98" y="137.69" class="d-cls-8" rx="10" transform="translate(-0.98 1.12) rotate(-0.37)"/><path d="M169,153.82,158.77,169.5l31.73-.2-10.69-22.7L171.28,161Z" class="d-cls-3"/><circle cx="162.86" cy="146.42" r="4.77" class="d-cls-2"/><path d="M212.18,60l16.68.08a2.32,2.32,0,0,1,2.31,2.32h0a2.33,2.33,0,0,1-2.33,2.31l-16.68-.08a2.3,2.3,0,0,1-2.3-2.32h0A2.31,2.31,0,0,1,212.18,60Z" class="d-cls-3"/><path d="M210.38,50,215,50a.47.47,0,0,1,.46.47h0a.47.47,0,0,1-.47.46l-4.63,0a.47.47,0,0,1-.46-.47h0A.47.47,0,0,1,210.38,50Z" class="d-cls-3"/><path d="M210.37,51.81l4.63,0a.47.47,0,0,1,.46.47h0a.46.46,0,0,1-.47.46l-4.63,0a.47.47,0,0,1-.46-.47h0A.47.47,0,0,1,210.37,51.81Z" class="d-cls-3"/><path d="M210.36,53.67l4.63,0a.47.47,0,0,1,.46.46h0a.46.46,0,0,1-.46.46l-4.63,0a.45.45,0,0,1-.46-.46h0A.45.45,0,0,1,210.36,53.67Z" class="d-cls-3"/></g></g></svg>